<?xml version="1.0" encoding="UTF-8"?>
<svg xmlns="http://www.w3.org/2000/svg" xmlns:xlink="http://www.w3.org/1999/xlink" width="38px" height="38px" viewBox="0 0 38 38" version="1.1">
<g id="surface1">
<path style=" stroke:none;fill-rule:evenodd;fill:rgb(99.607843%,24.313726%,12.54902%);fill-opacity:1;" d="M 7.105469 2.355469 C 7.105469 3.148438 7.105469 3.941406 7.105469 4.730469 C 6.300781 5.511719 5.511719 6.300781 4.730469 7.105469 C 3.941406 7.105469 3.148438 7.105469 2.355469 7.105469 C 2.351562 6.316406 2.355469 5.523438 2.375 4.730469 C 3.160156 3.945312 3.945312 3.160156 4.730469 2.375 C 5.523438 2.355469 6.316406 2.351562 7.105469 2.355469 Z M 7.105469 2.355469 "/>
<path style=" stroke:none;fill-rule:evenodd;fill:rgb(99.607843%,56.470591%,0%);fill-opacity:1;" d="M 7.105469 2.355469 C 15.023438 2.355469 22.941406 2.355469 30.855469 2.355469 C 30.855469 3.148438 30.855469 3.941406 30.855469 4.730469 C 22.941406 4.730469 15.023438 4.730469 7.105469 4.730469 C 7.105469 3.941406 7.105469 3.148438 7.105469 2.355469 Z M 7.105469 2.355469 "/>
<path style=" stroke:none;fill-rule:evenodd;fill:rgb(99.607843%,24.313726%,12.54902%);fill-opacity:1;" d="M 30.855469 2.355469 C 31.648438 2.351562 32.441406 2.355469 33.230469 2.375 C 34.015625 3.160156 34.800781 3.945312 35.585938 4.730469 C 35.605469 5.523438 35.613281 6.316406 35.605469 7.105469 C 34.816406 7.105469 34.023438 7.105469 33.230469 7.105469 C 32.453125 6.300781 31.660156 5.511719 30.855469 4.730469 C 30.855469 3.941406 30.855469 3.148438 30.855469 2.355469 Z M 30.855469 2.355469 "/>
<path style=" stroke:none;fill-rule:evenodd;fill:rgb(99.607843%,65.882355%,0%);fill-opacity:1;" d="M 7.105469 4.730469 C 15.023438 4.730469 22.941406 4.730469 30.855469 4.730469 C 31.660156 5.511719 32.453125 6.300781 33.230469 7.105469 C 33.230469 15.023438 33.230469 22.941406 33.230469 30.855469 C 32.453125 31.660156 31.660156 32.453125 30.855469 33.230469 C 22.941406 33.230469 15.023438 33.230469 7.105469 33.230469 C 6.300781 32.453125 5.511719 31.660156 4.730469 30.855469 C 4.730469 22.941406 4.730469 15.023438 4.730469 7.105469 C 5.511719 6.300781 6.300781 5.511719 7.105469 4.730469 Z M 7.105469 4.730469 "/>
<path style=" stroke:none;fill-rule:evenodd;fill:rgb(99.607843%,56.470591%,0%);fill-opacity:1;" d="M 2.355469 7.105469 C 3.148438 7.105469 3.941406 7.105469 4.730469 7.105469 C 4.730469 15.023438 4.730469 22.941406 4.730469 30.855469 C 3.941406 30.855469 3.148438 30.855469 2.355469 30.855469 C 2.355469 22.941406 2.355469 15.023438 2.355469 7.105469 Z M 2.355469 7.105469 "/>
<path style=" stroke:none;fill-rule:evenodd;fill:rgb(99.607843%,56.470591%,0%);fill-opacity:1;" d="M 33.230469 7.105469 C 34.023438 7.105469 34.816406 7.105469 35.605469 7.105469 C 35.605469 15.023438 35.605469 22.941406 35.605469 30.855469 C 34.816406 30.855469 34.023438 30.855469 33.230469 30.855469 C 33.230469 22.941406 33.230469 15.023438 33.230469 7.105469 Z M 33.230469 7.105469 "/>
<path style=" stroke:none;fill-rule:evenodd;fill:rgb(99.607843%,100%,99.607843%);fill-opacity:1;" d="M 7.105469 14.230469 C 15.023438 14.230469 22.941406 14.230469 30.855469 14.230469 C 30.855469 15.023438 30.855469 15.816406 30.855469 16.605469 C 24.523438 16.605469 18.191406 16.605469 11.855469 16.605469 C 11.855469 21.355469 11.855469 26.105469 11.855469 30.855469 C 11.066406 30.855469 10.273438 30.855469 9.480469 30.855469 C 9.480469 26.105469 9.480469 21.355469 9.480469 16.605469 C 8.691406 16.605469 7.898438 16.605469 7.105469 16.605469 C 7.105469 15.816406 7.105469 15.023438 7.105469 14.230469 Z M 7.105469 14.230469 "/>
<path style=" stroke:none;fill-rule:evenodd;fill:rgb(99.607843%,100%,99.607843%);fill-opacity:1;" d="M 14.230469 18.980469 C 15.816406 18.976562 17.398438 18.980469 18.980469 19 C 19.765625 19.785156 20.550781 20.570312 21.335938 21.355469 C 21.363281 22.148438 21.363281 22.941406 21.335938 23.730469 C 20.941406 24.121094 20.550781 24.515625 20.167969 24.917969 C 20.550781 25.320312 20.941406 25.714844 21.335938 26.105469 C 21.363281 26.898438 21.363281 27.691406 21.335938 28.480469 C 20.550781 29.265625 19.765625 30.050781 18.980469 30.835938 C 17.398438 30.855469 15.816406 30.863281 14.230469 30.855469 C 14.230469 26.898438 14.230469 22.941406 14.230469 18.980469 Z M 14.230469 18.980469 "/>
<path style=" stroke:none;fill-rule:evenodd;fill:rgb(99.607843%,100%,99.607843%);fill-opacity:1;" d="M 26.105469 18.980469 C 27.691406 18.980469 29.273438 18.980469 30.855469 18.980469 C 30.855469 19.773438 30.855469 20.566406 30.855469 21.355469 C 29.273438 21.355469 27.691406 21.355469 26.105469 21.355469 C 26.105469 22.148438 26.105469 22.941406 26.105469 23.730469 C 27.691406 23.730469 29.273438 23.730469 30.855469 23.730469 C 30.863281 25.316406 30.855469 26.898438 30.835938 28.480469 C 30.050781 29.265625 29.265625 30.050781 28.480469 30.835938 C 26.898438 30.855469 25.316406 30.863281 23.730469 30.855469 C 23.730469 30.066406 23.730469 29.273438 23.730469 28.480469 C 25.316406 28.480469 26.898438 28.480469 28.480469 28.480469 C 28.480469 27.691406 28.480469 26.898438 28.480469 26.105469 C 26.898438 26.105469 25.316406 26.105469 23.730469 26.105469 C 23.726562 24.523438 23.730469 22.941406 23.75 21.355469 C 24.542969 20.570312 25.328125 19.777344 26.105469 18.980469 Z M 26.105469 18.980469 "/>
<path style=" stroke:none;fill-rule:evenodd;fill:rgb(99.607843%,65.882355%,0%);fill-opacity:1;" d="M 16.605469 21.355469 C 17.398438 21.355469 18.191406 21.355469 18.980469 21.355469 C 18.980469 22.148438 18.980469 22.941406 18.980469 23.730469 C 18.191406 23.730469 17.398438 23.730469 16.605469 23.730469 C 16.605469 22.941406 16.605469 22.148438 16.605469 21.355469 Z M 16.605469 21.355469 "/>
<path style=" stroke:none;fill-rule:evenodd;fill:rgb(99.607843%,65.882355%,0%);fill-opacity:1;" d="M 16.605469 26.105469 C 17.398438 26.105469 18.191406 26.105469 18.980469 26.105469 C 18.980469 26.898438 18.980469 27.691406 18.980469 28.480469 C 18.191406 28.480469 17.398438 28.480469 16.605469 28.480469 C 16.605469 27.691406 16.605469 26.898438 16.605469 26.105469 Z M 16.605469 26.105469 "/>
<path style=" stroke:none;fill-rule:evenodd;fill:rgb(99.607843%,24.313726%,12.54902%);fill-opacity:1;" d="M 2.355469 30.855469 C 3.148438 30.855469 3.941406 30.855469 4.730469 30.855469 C 5.511719 31.660156 6.300781 32.453125 7.105469 33.230469 C 7.105469 34.023438 7.105469 34.816406 7.105469 35.605469 C 6.316406 35.613281 5.523438 35.605469 4.730469 35.585938 C 3.945312 34.800781 3.160156 34.015625 2.375 33.230469 C 2.355469 32.441406 2.351562 31.648438 2.355469 30.855469 Z M 2.355469 30.855469 "/>
<path style=" stroke:none;fill-rule:evenodd;fill:rgb(99.607843%,24.313726%,12.54902%);fill-opacity:1;" d="M 33.230469 30.855469 C 34.023438 30.855469 34.816406 30.855469 35.605469 30.855469 C 35.613281 31.648438 35.605469 32.441406 35.585938 33.230469 C 34.800781 34.015625 34.015625 34.800781 33.230469 35.585938 C 32.441406 35.605469 31.648438 35.613281 30.855469 35.605469 C 30.855469 34.816406 30.855469 34.023438 30.855469 33.230469 C 31.660156 32.453125 32.453125 31.660156 33.230469 30.855469 Z M 33.230469 30.855469 "/>
<path style=" stroke:none;fill-rule:evenodd;fill:rgb(99.607843%,56.470591%,0%);fill-opacity:1;" d="M 7.105469 33.230469 C 15.023438 33.230469 22.941406 33.230469 30.855469 33.230469 C 30.855469 34.023438 30.855469 34.816406 30.855469 35.605469 C 22.941406 35.605469 15.023438 35.605469 7.105469 35.605469 C 7.105469 34.816406 7.105469 34.023438 7.105469 33.230469 Z M 7.105469 33.230469 "/>
</g>
</svg>
